<?xml version="1.0" encoding="utf-8"?>
<!-- Generator: Adobe Illustrator 22.1.0, SVG Export Plug-In . SVG Version: 6.00 Build 0)  -->
<svg version="1.1" id="Layer_1" xmlns="http://www.w3.org/2000/svg" xmlns:xlink="http://www.w3.org/1999/xlink" x="0px" y="0px"
	 viewBox="0 0 1323.8 828" style="enable-background:new 0 0 1323.8 828;" xml:space="preserve">
<style type="text/css">
	.st0{fill:#FFFFFF;}
</style>
<g id="dMdnro_1_">
	<g>
		<path class="st0" d="M0,435.9c46.2-40.6,89.2-78.8,132.8-116.3c4.5-3.9,13.1-6.7,18.6-5.3c24.3,6.4,40.2-5.1,56.9-20.5
			c41-37.8,83.4-74.2,126.4-112.2c18.5,15.8,36,30.8,55.8,47.7c35.4-32.8,70.5-65.3,105.6-97.9c11.3-10.5,20.9-22.9,39.9-12.6
			c4.1,2.2,15.6-4.6,20.7-10c32.9-35.3,65-71.3,98.9-108.8C728.8,70.4,794.2,133.4,861,197.6c33.7-27.2,66.4-53.6,101.1-81.7
			c24.7,22,48.5,43.9,73.2,64.8c6.7,5.7,16.8,12.6,24.1,11.5c23.1-3.5,36.9,8.3,51,23c71.4,74.6,143,148.9,213.4,222.1
			c-14.8,3.6-32.7,3.9-50.5-14.2c-60.3-61.4-122.2-121.3-183.6-181.6c-6-5.9-14.1-15.8-19.8-14.9c-43.1,6.9-61-29.2-88-49.4
			c-6.8-5.1-13-10.9-21.1-17.7c-33.7,27.1-67,53.9-101.8,81.9c-65.2-62.8-129.6-124.7-196.5-189.1c-31.8,31-63,61.3-94.1,91.9
			c-9.9,9.8-18.2,19.8-35.2,10.9c-5-2.6-17.2,3.4-23.1,8.7c-39.6,35.7-78.3,72.2-118.8,109.8c-19.1-16.2-37.1-31.6-56.7-48.2
			c-42.2,37.4-83,74.1-124.5,110c-7.2,6.3-18.4,14.3-26,12.7c-27.5-5.7-45.6,7.2-63.6,24.5c-16.1,15.5-34.9,28.3-50.2,44.5
			C51.9,436.7,31,442.7,0,435.9z"/>
		<path class="st0" d="M651.7,158.1c49.4-14.7,54.1,19.6,60,50.8c3.8,20.4,13.6,30.7,34.6,34.4c26.6,4.7,52.7,12.8,84.1,20.8
			c-59.1,45.8-113.8,88.5-169,130.4c-3.9,2.9-13.4,2.8-17.7,0.1c-17.2-11.1-33.3-23.8-50.8-36.6c4.3-7,7.8-12.6,15.5-25
			c-29.8,15.5-53.3,27.8-76.9,40c-0.6-0.8-1.2-1.6-1.8-2.4c34-32.8,67.9-65.5,101.9-98.3c-1.9-2.4-3.9-4.8-5.8-7.2
			c-18.4,11.5-37.7,21.8-55.1,34.7c-15.8,11.8-28.1,12.3-41.9-2.5c-8.7-9.3-19.7-16.6-31.1-26c5.7-9.2,11.1-18,16.6-26.8
			c-0.9-1-1.7-1.9-2.6-2.9c-42.1,25.1-84.1,50.2-126.2,75.3c-1-1.4-1.9-2.9-2.9-4.3c45.6-41.4,91.1-83,137-124.1
			c3.7-3.4,12.3-6.3,15.7-4.3c20.5,12.1,31.5-1.3,43.5-14c24.8-26.1,49.8-51.9,74.8-77.9c1.9,1.1,3.8,2.2,5.6,3.3
			C657,114.6,654.7,133.3,651.7,158.1z"/>
		<path class="st0" d="M869.6,401.8c-30.3-58.4-30.3-58.4,5.8-106.7c-39,20.9-78,41.7-117,62.6c-1-1.4-2-2.9-3-4.3
			c33.8-26.3,67.5-52.7,101.3-79s67.8-52.6,104.9-81.4c2.6,17.5,6.3,31.5,6.5,45.6c0.3,19.3,9.8,27.9,27.5,30.2
			c1.7,0.2,3.3,1.2,5,1.3c47.2,4.5,78.2,28.3,93.7,73.9c3.4,9.9,14.5,18.9,24.2,24.7c36.1,21.5,73,41.5,108.4,65.9
			c-58.9-11.9-117.8-23.7-176.7-35.8c-3.8-0.8-9.1-3.4-10.4-6.5c-13.1-32.6-39.4-25.9-64.9-22.6c-15.2,2-30.5,3.2-52,5.4
			c14.4-20.1,25.7-35.7,36.9-51.3c-1-1.1-2-2.2-3-3.3C928.3,347.1,899.7,373.7,869.6,401.8z"/>
		<path class="st0" d="M358.2,304.7c-9.5,10.1-21.2,22.5-34.6,36.6c23.2,13.7,44.5,26.3,68.8,40.6c-20.9,17.1-40.2,33.6-60.5,48.9
			c-4.4,3.3-13.2,4.4-18.5,2.4c-16.8-6.2-32.9-14.4-51.5-22.8c5.6-7.1,10.1-12.8,19.3-24.5c-31.4,13.8-56.6,24.8-81.8,35.9
			c-0.6-0.9-1.2-1.9-1.8-2.8c14.9-13.8,29.8-27.6,49.5-45.9c-51.4,14.7-96.5,27.7-136.6,39.2c11.3-9.3,27.3-23.2,44.1-35.9
			c5-3.8,13.3-7.3,18.6-5.8c22.8,6.5,37.1-5.8,52.3-19.3c34-30.2,68.9-59.6,100.9-87C337.4,278.1,347.5,291,358.2,304.7z"/>
	</g>
</g>
<g>
	<path class="st0" d="M24.6,801.6v-334h46l72.2,201.2h0.9V467.7h47.8v334h-45L73.4,600.9h-0.9v200.8H24.6V801.6z"/>
	<path class="st0" d="M213.2,801.6l74.6-334h39.9l74.6,334h-47.8l-14.1-71.8h-65.2L261,801.6H213.2z M331.4,684.8l-23.5-121H307
		l-23.5,121H331.4z"/>
	<path class="st0" d="M431.3,801.6v-289h-55.4v-45h158.6v45h-55.4v289H431.3z"/>
	<path class="st0" d="M547.2,546.5c0-13.4,2.3-25.3,7-35.7c4.7-10.3,10.9-18.9,18.8-25.8c7.5-6.6,16-11.6,25.6-15
		c9.5-3.4,19.2-5.2,28.8-5.2c9.7,0,19.3,1.7,28.8,5.2c9.5,3.4,18.2,8.4,26,15c7.5,6.9,13.6,15.5,18.3,25.8s7,22.2,7,35.7v176.4
		c0,14.1-2.3,26.1-7,36.1s-10.8,18.3-18.3,24.9c-7.8,6.9-16.5,12-26,15.5c-9.5,3.4-19.2,5.2-28.8,5.2c-9.7,0-19.3-1.7-28.8-5.2
		c-9.5-3.4-18.1-8.6-25.6-15.5c-7.8-6.6-14.1-14.8-18.8-24.9c-4.7-10-7-22-7-36.1V546.5z M595,722.8c0,11.6,3.2,20.1,9.6,25.6
		c6.4,5.5,14,8.2,22.8,8.2s16.3-2.7,22.8-8.2c6.4-5.5,9.6-14,9.6-25.6V546.5c0-11.6-3.2-20.1-9.6-25.6c-6.4-5.5-14-8.2-22.8-8.2
		s-16.3,2.7-22.8,8.2c-6.4,5.5-9.6,14-9.6,25.6V722.8z"/>
	<path class="st0" d="M904.6,467.7v258.9c0,11-2,21-5.9,30.3c-3.9,9.2-9.5,17.4-16.7,24.6c-7.2,7.2-15.5,12.8-24.9,16.9
		c-9.4,4.1-19.4,6.1-30,6.1s-20.6-2-29.8-6.1s-17.4-9.7-24.6-16.9c-7.2-7.2-12.8-15.4-16.9-24.6c-4.1-9.2-6.1-19.3-6.1-30.3V467.7
		h47.8v254.2c0,11.9,2.8,20.6,8.4,26.3c5.6,5.6,12.7,8.4,21.1,8.4c8.4,0,15.5-2.8,21.1-8.4s8.4-14.4,8.4-26.3V467.7H904.6z"/>
	<path class="st0" d="M949.6,801.6v-334h76.9c56.3,0,84.4,32.7,84.4,98c0,19.7-3,36.4-9.1,50.2s-16.8,24.9-32.1,33.3l51.6,152.5
		h-50.7L1026.1,659h-28.6v142.6H949.6z M997.5,512.7v104.1h27.2c8.4,0,15.2-1.2,20.2-3.5s8.9-5.7,11.7-10.1
		c2.5-4.4,4.2-9.8,5.2-16.2c0.9-6.4,1.4-13.8,1.4-22.3c0-8.4-0.5-15.9-1.4-22.3c-0.9-6.4-2.8-12-5.6-16.7
		c-5.9-8.8-17.2-13.1-33.8-13.1L997.5,512.7L997.5,512.7z"/>
	<path class="st0" d="M1304.3,563.8h-47.8V553c0-10.9-2.6-20.4-7.7-28.4s-13.8-12-26-12c-6.6,0-11.9,1.3-15.9,3.8
		c-4.1,2.5-7.4,5.6-9.9,9.4c-2.5,4.1-4.2,8.7-5.2,13.8c-0.9,5.2-1.4,10.6-1.4,16.2c0,6.6,0.2,12,0.7,16.4s1.6,8.3,3.5,11.7
		s4.6,6.4,8.2,8.9s8.5,5,14.8,7.5l36.6,14.5c10.6,4.1,19.2,8.8,25.8,14.3c6.6,5.5,11.7,11.8,15.5,19c3.4,7.5,5.8,16,7,25.6
		c1.2,9.5,1.9,20.4,1.9,32.6c0,14.1-1.4,27.1-4.2,39.2c-2.8,12-7.4,22.3-13.6,30.7c-6.6,8.8-15.2,15.6-25.8,20.6
		c-10.6,5-23.6,7.5-38.9,7.5c-11.6,0-22.4-2-32.4-6.1s-18.6-9.7-25.8-16.9c-7.2-7.2-12.9-15.6-17.1-25.1s-6.3-19.9-6.3-31.2v-17.8
		h47.8v15c0,8.8,2.6,16.7,7.7,23.7c5.2,7,13.8,10.6,26,10.6c8.1,0,14.5-1.2,19-3.5s8-5.7,10.6-10.1c2.5-4.4,4-9.6,4.5-15.7
		c0.5-6.1,0.7-12.9,0.7-20.4c0-8.8-0.3-15.9-0.9-21.6c-0.6-5.6-1.9-10.2-3.8-13.6c-2.2-3.4-5.1-6.3-8.7-8.4c-3.6-2.2-8.4-4.5-14.3-7
		l-34.2-14.1c-20.6-8.4-34.5-19.6-41.5-33.5s-10.6-31.3-10.6-52.3c0-12.5,1.7-24.4,5.2-35.7c3.4-11.3,8.6-20.9,15.5-29.1
		c6.6-8.1,14.9-14.6,25.1-19.5c10.2-4.8,22.3-7.3,36.4-7.3c11.9,0,22.8,2.2,32.6,6.6c9.9,4.4,18.4,10.2,25.6,17.4
		c14.4,15,21.6,32.2,21.6,51.6v23.5H1304.3z"/>
</g>
</svg>
